<?xml version="1.0" encoding="utf-8"?>
<!-- Generator: Adobe Illustrator 24.0.1, SVG Export Plug-In . SVG Version: 6.00 Build 0)  -->
<svg version="1.1" id="Laag_1" xmlns="http://www.w3.org/2000/svg" xmlns:xlink="http://www.w3.org/1999/xlink" x="0px" y="0px"
	 viewBox="0 0 89.4 48.4" style="enable-background:new 0 0 89.4 48.4;" xml:space="preserve">
<style type="text/css">
	.st0{fill-rule:evenodd;clip-rule:evenodd;fill:#FFFFFF;}
</style>
<path class="st0" d="M26.5,41.2c1.6,1.6,1.6,4.3,0,6s-4.3,1.6-6,0L1.2,27.9c-1.6-1.6-1.6-4.3,0-6L21.2,1.9c1.6-1.6,4.3-1.6,6,0
	s1.6,4.3,0,6l0,0l-17,17L26.5,41.2z"/>
<path class="st0" d="M57.5,5.9l-17.9,40C38.7,48,36.2,49,34,48c-2.1-1-3.1-3.5-2.1-5.6l17.9-40c1-2.1,3.5-3.1,5.6-2.1
	C57.5,1.3,58.5,3.8,57.5,5.9L57.5,5.9z"/>
<path class="st0" d="M88.2,27.9L68.9,47.2c-1.6,1.6-4.3,1.6-6,0s-1.6-4.3,0-6l16.3-16.3l-17-17c-1.6-1.6-1.6-4.3,0-6s4.3-1.6,6,0
	l0,0l19.9,19.9C89.8,23.5,89.8,26.2,88.2,27.9L88.2,27.9z"/>
</svg>
