<?xml version="1.0" encoding="utf-8"?>
<svg version="1.1" id="Laag_1" xmlns="http://www.w3.org/2000/svg" xmlns:xlink="http://www.w3.org/1999/xlink" x="0px" y="0px"
	 viewBox="0 0 108.4 107.9" style="enable-background:new 0 0 108.4 107.9;" xml:space="preserve">
<style type="text/css">
	.st0{fill:#C984B7;}
</style>
<g id="Group_48" transform="translate(-661.163 -550.924)">
	<path id="Path_109" class="st0" d="M765.4,576.2c2.3,0,4.2-1.9,4.2-4.2v-16.9c0-2.3-1.9-4.2-4.2-4.2h-16.9c-2.3,0-4.2,1.9-4.2,4.2
		v4.2h-57.8v-4.2c0-2.3-1.9-4.2-4.2-4.2h-16.9c-2.3,0-4.2,1.9-4.2,4.2V572c0,2.3,1.9,4.2,4.2,4.2h4.7v57.3h-4.7
		c-2.3,0-4.2,1.9-4.2,4.2v16.9c0,2.3,1.9,4.2,4.2,4.2c0,0,0,0,0,0h16.9c2.3,0,4.2-1.9,4.2-4.2c0,0,0,0,0,0v-4.2h57.8v4.2
		c0,2.3,1.9,4.2,4.2,4.2c0,0,0,0,0,0h16.9c2.3,0,4.2-1.9,4.2-4.2c0,0,0,0,0,0v-16.9c0-2.3-1.9-4.2-4.2-4.2h-4.2v-57.3H765.4z
		 M752.7,559.4h8.4v8.4h-8.4V559.4z M669.6,559.4h8.4v8.4h-8.4V559.4z M678,650.4h-8.4V642h8.4V650.4L678,650.4z M682.2,633.6h-3.7
		v-57.3h3.7c2.3,0,4.2-1.9,4.2-4.2v-4.2h57.8v4.2c0,2.3,1.9,4.2,4.2,4.2h4.2v57.3h-4.2c-2.3,0-4.2,1.9-4.2,4.2v4.2h-57.8v-4.2
		C686.5,635.4,684.6,633.6,682.2,633.6C682.2,633.6,682.2,633.6,682.2,633.6L682.2,633.6z M761.1,650.4h-8.4V642h8.4V650.4z"/>
</g>
</svg>
