<?xml version="1.0" encoding="utf-8"?>
<!-- Generator: Adobe Illustrator 24.0.1, SVG Export Plug-In . SVG Version: 6.00 Build 0)  -->
<svg version="1.1" id="Laag_1" xmlns="http://www.w3.org/2000/svg" xmlns:xlink="http://www.w3.org/1999/xlink" x="0px" y="0px"
	 viewBox="0 0 750.8 779.7" enable-background="new 0 0 750.8 779.7" xml:space="preserve">
<circle fill="#FFFFFF" cx="375.4" cy="383.7" r="375.4"/>
<g>
	<path fill="#1DCAD3" d="M257.8,247.3c-36.6,0-55.5,19.5-55.5,56.7v172.1c0,36.6,18.9,56.1,55.5,56.1c32.8,0,59.9-18.9,59.9-54.8
		V302.2C317.7,266.2,290.6,247.3,257.8,247.3z"/>
	<path fill="#1DCAD3" d="M492.6,532.4c36.6,0,55.5-19.5,55.5-56.7V303.6c0-36.6-18.9-56.1-55.5-56.1c-32.8,0-59.9,18.9-59.9,54.8
		v175.2C432.7,513.5,459.8,532.4,492.6,532.4z"/>
	<path fill="#1DCAD3" d="M750.8,383.7c0-207.3-168.1-375.4-375.4-375.4c-5.6,0-11.1,0.1-16.6,0.4c0.8,2,1.2,4.4,1.2,7.1v536
		c0,10.7-5.7,16.4-15.8,16.4h-10.1c-10.1,0-15.8-5-15.8-14.5v-20.8c-5,11.3-25.2,37.2-72.5,37.2c-54.2,0-85.7-34.7-85.7-91.4V302.8
		c0-58.6,33.4-92.7,87.6-92.7c45.4,0,64.3,22.1,70,32.8V15.8c0-1.1,0.1-2.1,0.2-3.1C137.9,40.3,0,195.9,0,383.7
		C0,591,168.1,759.1,375.4,759.1c5.1,0,10.1-0.1,15.1-0.3V228c0-10.7,5.7-16.4,15.8-16.4h10.1c10.1,0,15.8,5,15.8,14.5v20.8
		c5-11.3,25.2-37.2,72.5-37.2c54.2,0,85.7,34.7,85.7,91.4v175.8c0,58.6-33.4,92.7-87.6,92.7c-45.4,0-64.3-22.1-70-32.8v217.9
		C612.8,727.1,750.8,571.5,750.8,383.7z"/>
	<path fill="#FFFFFF" d="M317.7,242.9c-5.7-10.7-24.6-32.8-70-32.8c-54.2,0-87.6,34-87.6,92.7v175.8c0,56.7,31.5,91.4,85.7,91.4
		c47.3,0,67.4-25.8,72.5-37.2v20.8c0,9.5,5.7,14.5,15.8,14.5h10.1c10.1,0,15.8-5.7,15.8-16.4v-536c0-2.7-0.4-5-1.2-7.1
		c-13.8,0.6-27.4,1.9-40.8,4c-0.1,1-0.2,2-0.2,3.1V242.9z M317.7,477.4c0,35.9-27.1,54.8-59.9,54.8c-36.6,0-55.5-19.5-55.5-56.1
		V304.1c0-37.2,18.9-56.7,55.5-56.7c32.8,0,59.9,18.9,59.9,54.8V477.4z"/>
	<path fill="#FFFFFF" d="M502.7,569.6c54.2,0,87.6-34,87.6-92.7V301.1c0-56.7-31.5-91.4-85.7-91.4c-47.3,0-67.4,25.8-72.5,37.2
		v-20.8c0-9.5-5.7-14.5-15.8-14.5h-10.1c-10.1,0-15.8,5.7-15.8,16.4v530.8c14.3-0.6,28.4-1.9,42.2-4V536.8
		C438.4,547.5,457.3,569.6,502.7,569.6z M432.7,302.3c0-35.9,27.1-54.8,59.9-54.8c36.6,0,55.5,19.5,55.5,56.1v172.1
		c0,37.2-18.9,56.7-55.5,56.7c-32.8,0-59.9-18.9-59.9-54.8V302.3z"/>
</g>
<linearGradient id="SVGID_1_" gradientUnits="userSpaceOnUse" x1="2.34" y1="592.4266" x2="748.4198" y2="592.4266">
	<stop  offset="1.273517e-02" style="stop-color:#48BBC9"/>
	<stop  offset="6.643100e-02" style="stop-color:#4FBECB;stop-opacity:0.9559"/>
	<stop  offset="0.1447" style="stop-color:#62C5D1;stop-opacity:0.8917"/>
	<stop  offset="0.2379" style="stop-color:#82D1DA;stop-opacity:0.8152"/>
	<stop  offset="0.3426" style="stop-color:#AFE1E7;stop-opacity:0.7292"/>
	<stop  offset="0.4557" style="stop-color:#E7F6F8;stop-opacity:0.6364"/>
	<stop  offset="0.5" style="stop-color:#FFFFFF;stop-opacity:0.6"/>
	<stop  offset="0.6282" style="stop-color:#C1E8ED;stop-opacity:0.7026"/>
	<stop  offset="0.7526" style="stop-color:#8DD5DD;stop-opacity:0.8021"/>
	<stop  offset="0.8599" style="stop-color:#68C7D2;stop-opacity:0.8879"/>
	<stop  offset="0.9459" style="stop-color:#50BECB;stop-opacity:0.9567"/>
	<stop  offset="1" style="stop-color:#48BBC9"/>
</linearGradient>
<path opacity="0.6" fill="url(#SVGID_1_)" d="M375.4,685c-171,0-316.8-107.9-373-259.2c20.9,187.5,180,333.3,373,333.3
	s352.1-145.8,373-333.3C692.1,577.2,546.4,685,375.4,685z"/>
</svg>
