<?xml version="1.0" encoding="utf-8"?>
<!-- Generator: Adobe Illustrator 24.2.1, SVG Export Plug-In . SVG Version: 6.00 Build 0)  -->
<svg version="1.1" id="Laag_1" xmlns="http://www.w3.org/2000/svg" xmlns:xlink="http://www.w3.org/1999/xlink" x="0px" y="0px"
	 viewBox="0 0 659.6 538.9" enable-background="new 0 0 659.6 538.9" xml:space="preserve">
<g>
	<path d="M110.8,495.6v-38.5c0-1.2,0.7-1.9,1.9-1.9h1.5c1.2,0,1.9,0.6,1.9,1.9v10.5c0.5-1.2,2.5-3.6,6.6-3.6c5,0,7.8,3.2,7.8,8.1
		v23.4c0,1.2-0.6,1.9-1.9,1.9h-1.5c-1.2,0-1.9-0.7-1.9-1.9v-22.5c0-2.9-1.5-4.5-4.3-4.5c-2.5,0-4.7,1.6-4.7,4.4v22.6
		c0,1.2-0.7,1.9-1.9,1.9h-1.5C111.5,497.5,110.8,496.8,110.8,495.6z"/>
	<path d="M159,472.6v23c0,1.2-0.7,1.9-1.9,1.9h-1.4c-1.2,0-1.9-0.6-1.9-1.8v-1.6c-0.6,1.6-2.5,3.7-6.6,3.7c-5.5,0-8.4-3-8.4-8v-1.7
		c0-4.1,2.2-6.6,6.8-8.1l8-2.7v-4.8c0-2.8-1.3-4.3-4.7-4.3c-3.4,0-4.7,1.5-4.7,4.2v0.3c0,1.2-0.6,1.8-1.9,1.8h-1.5
		c-1.2,0-1.9-0.6-1.9-1.7v-0.3c0-5.6,3.4-9,9.9-9C155.7,463.6,159,466.9,159,472.6z M153.7,488.9V482l-5.8,1.8
		c-2.8,0.9-3.8,2.2-3.8,4.4v1.3c0,2.5,1.3,4,4.4,4C152.3,493.5,153.7,491.5,153.7,488.9z"/>
	<path d="M180.2,497.5c-3.8,0-5.5-1.6-6-2.4v10.3c0,1.2-0.7,1.9-1.9,1.9h-1.5c-1.2,0-1.9-0.7-1.9-1.9V466c0-1.2,0.7-1.9,1.9-1.9h1.5
		c1.2,0,1.9,0.5,1.9,1.6v1.3c0.5-1,2.5-3.1,6.4-3.1c5.1,0,8,3.2,8,8.4v16.5C188.5,494.4,185.2,497.5,180.2,497.5z M178.8,492.9
		c2.8,0,4.4-1.5,4.4-4.3v-15.7c0-2.8-1.6-4.3-4.4-4.3c-2.6,0-4.7,1.4-4.7,4.2v15.8C174.2,491.5,176.3,492.9,178.8,492.9z"/>
	<path d="M209.4,497.5c-3.8,0-5.5-1.6-6-2.4v10.3c0,1.2-0.7,1.9-1.9,1.9H200c-1.2,0-1.9-0.7-1.9-1.9V466c0-1.2,0.7-1.9,1.9-1.9h1.5
		c1.2,0,1.9,0.5,1.9,1.6v1.3c0.5-1,2.5-3.1,6.4-3.1c5.1,0,8,3.2,8,8.4v16.5C217.7,494.4,214.4,497.5,209.4,497.5z M208.1,492.9
		c2.8,0,4.4-1.5,4.4-4.3v-15.7c0-2.8-1.6-4.3-4.4-4.3c-2.6,0-4.7,1.4-4.7,4.2v15.8C203.4,491.5,205.5,492.9,208.1,492.9z"/>
	<path d="M226,464.2h1.3c1.2,0,1.9,0.6,2.1,1.6l2.8,11.7c1.7,7.4,2.4,12.3,2.4,12.3s0.8-4.9,2.4-12.3l2.7-11.7
		c0.2-1.1,0.9-1.6,2.1-1.6h1.3c1.3,0,2,0.8,1.6,2.1l-7.6,31.5c-1.3,5.6-4.6,8.7-10.1,8.7h-0.4c-1.2,0-1.9-0.7-1.9-1.9v-0.9
		c0-1.2,0.6-1.7,1.9-1.9l0.3-0.1c3-0.1,4.7-2.4,4.7-5.3c0-0.7-0.2-1.6-0.3-2.2l-7-28C224.1,464.9,224.7,464.2,226,464.2z"/>
	<path d="M279.2,488c0-1.2,0.6-1.9,1.9-1.9h1.5c1.2,0,1.9,0.7,1.9,1.9v0.8c0,5.7-3.4,9.4-9.9,9.4c-6.5,0-9.9-3.7-9.9-9.4v-15.8
		c0-5.8,3.4-9.4,9.9-9.4c6.5,0,9.9,3.6,9.9,9.4v0.9c0,1.2-0.7,1.9-1.9,1.9h-1.5c-1.2,0-1.9-0.7-1.9-1.9v-0.9c0-2.8-1.4-4.6-4.7-4.6
		c-3.3,0-4.7,1.7-4.7,4.6v15.8c0,2.8,1.3,4.6,4.7,4.6c3.3,0,4.7-1.8,4.7-4.6V488z"/>
	<path d="M312.9,466v29.6c0,1.2-0.6,1.9-1.9,1.9h-1.3c-1.2,0-1.9-0.7-1.9-1.9v-1.5c-0.4,1.2-2.3,3.7-6.8,3.7c-5.1,0-7.8-3.4-7.8-8.4
		V466c0-1.2,0.7-1.9,1.9-1.9h1.5c1.2,0,1.9,0.6,1.9,1.9v22.6c0,2.9,1.5,4.5,4.3,4.5c2.5,0,4.7-1.5,4.7-4.4V466
		c0-1.2,0.7-1.9,1.9-1.9h1.5C312.3,464.2,312.9,464.8,312.9,466z"/>
	<path d="M341.1,487.9v1.3c0,5.8-3.4,8.9-9.9,8.9c-6.5,0-9.7-3.2-9.7-8.9v-0.1c0-1.2,0.5-1.9,1.9-1.9h1.5c1.3,0,1.9,0.7,1.9,2v0.1
		c0,2.8,1.2,4.2,4.5,4.2c3.3,0,4.7-1.3,4.7-4.2v-1c0-1.9-0.8-3.1-3-4.1l-5.9-2.8c-3.3-1.5-5.2-4-5.2-7.8v-1.1c0-5.6,3.1-8.9,9.6-8.9
		c6.5,0,9.5,3.2,9.5,8.8v0.2c0,1-0.5,1.7-1.8,1.7h-1.5c-1.3,0-1.9-0.6-1.9-1.6v-0.2c0-2.8-1-4.3-4.3-4.3c-3.3,0-4.4,1.5-4.4,4.3v0.8
		c0,2.2,0.9,3.3,2.9,4.2l5.8,2.8C338.9,481.8,341.1,484.2,341.1,487.9z"/>
	<path d="M348.3,464.2h1.8l0.9-4.8c0.3-1.1,1-1.6,2.3-1.6c1.2,0,1.9,0.7,1.9,1.9v4.5h4.5c1.2,0,1.9,0.6,1.9,1.9v0.8
		c0,1.2-0.7,1.9-1.9,1.9h-4.5v20.5c0,2.6,1,3.8,3.5,3.8c1.9,0,3.5-0.5,3.5,1.4v1.1c0,1.6-1.6,2.3-4.4,2.3c-5.5,0-7.9-3.3-7.9-8.4
		v-20.6h-1.6c-1.2,0-1.9-0.6-1.9-1.9V466C346.4,464.8,347.1,464.2,348.3,464.2z"/>
	<path d="M378.3,498.1c-6.5,0-9.9-3.7-9.9-9.4v-15.8c0-5.8,3.5-9.4,9.9-9.4c6.5,0,9.9,3.6,9.9,9.4v15.8
		C388.2,494.4,384.8,498.1,378.3,498.1z M378.3,468.3c-3.3,0-4.7,1.7-4.7,4.6v15.8c0,2.8,1.4,4.6,4.7,4.6c3.3,0,4.7-1.8,4.7-4.6
		v-15.8C383,470.1,381.6,468.3,378.3,468.3z"/>
	<path d="M397.8,495.6V466c0-1.2,0.7-1.9,1.9-1.9h1.3c1.2,0,1.9,0.6,1.9,1.9v1.6c0.6-1.3,2.6-3.7,6.7-3.7c3.5,0,5.9,1.6,7,4.2
		c0.8-1.7,3-4.2,7.2-4.2c4.9,0,7.7,3.2,7.7,8.1v23.5c0,1.2-0.7,1.9-1.9,1.9h-1.5c-1.2,0-1.9-0.7-1.9-1.9V473c0-2.8-1.5-4.4-4.3-4.4
		c-2.4,0-4.6,1.5-4.6,4.4v22.6c0,1.2-0.7,1.9-1.9,1.9h-1.5c-1.2,0-1.9-0.7-1.9-1.9V473c0-2.8-1.5-4.4-4.3-4.4
		c-2.4,0-4.6,1.5-4.6,4.3v22.7c0,1.2-0.7,1.9-1.9,1.9h-1.5C398.5,497.5,397.8,496.8,397.8,495.6z"/>
	<path d="M460,472.6v23c0,1.2-0.7,1.9-1.9,1.9h-1.4c-1.2,0-1.9-0.6-1.9-1.8v-1.6c-0.6,1.6-2.5,3.7-6.6,3.7c-5.5,0-8.4-3-8.4-8v-1.7
		c0-4.1,2.2-6.6,6.8-8.1l8-2.7v-4.8c0-2.8-1.3-4.3-4.7-4.3c-3.4,0-4.7,1.5-4.7,4.2v0.3c0,1.2-0.6,1.8-1.9,1.8h-1.5
		c-1.2,0-1.9-0.6-1.9-1.7v-0.3c0-5.6,3.4-9,9.9-9C456.6,463.6,460,466.9,460,472.6z M454.7,488.9V482l-5.8,1.8
		c-2.8,0.9-3.8,2.2-3.8,4.4v1.3c0,2.5,1.3,4,4.4,4C453.3,493.5,454.7,491.5,454.7,488.9z"/>
	<path d="M480.3,469.4c-1.7,0-3.1,0.3-4,1.2c-0.8,0.8-1.1,1.9-1.1,3.5v21.5c0,1.2-0.7,1.9-1.9,1.9h-1.5c-1.2,0-1.9-0.7-1.9-1.9V466
		c0-1.2,0.7-1.9,1.9-1.9h1.3c1.2,0,1.9,0.6,1.9,1.9v2.4c0.4-1.9,2.4-4.5,5.9-4.5c1.2,0,1.6,0.6,1.6,1.5v1.6
		C482.3,469,481.7,469.3,480.3,469.4z"/>
	<path d="M490.9,455.3h1.5c1.2,0,1.9,0.6,1.9,1.9v38.5c0,1.2-0.6,1.9-1.9,1.9h-1.5c-1.2,0-1.9-0.7-1.9-1.9v-38.5
		C489,455.9,489.7,455.3,490.9,455.3z M507.1,466.4l-6,13.8l6.5,15.2c0.6,1.3-0.1,2.2-1.4,2.2h-1.7c-1.1,0-1.8-0.5-2.2-1.5
		l-6.3-14.5c-0.3-0.9-0.3-1.7,0.1-2.6l5.9-13.3c0.4-1,1.1-1.5,2.2-1.5h1.6C507.1,464.2,507.7,465,507.1,466.4z"/>
	<path d="M520,482.4v6.4c0,2.8,1.5,4.7,4.8,4.7c3.3,0,4.8-1.7,4.8-4.5v-0.6c0-1.1,0.7-1.8,1.9-1.8h1.4c1.2,0,1.9,0.6,1.9,1.7v0.6
		c0,5.7-3.5,9.3-9.9,9.3c-6.5,0-10-3.7-10-9.4v-15.8c0-5.8,3.5-9.4,10-9.4c6.5,0,9.9,3.6,9.9,9.4v7.4c0,0.8-0.2,1.3-0.7,1.6
		c-0.3,0.2-0.8,0.4-1.3,0.4H520z M520,472.9v5.2h9.5v-5.2c0-2.8-1.4-4.7-4.8-4.7C521.4,468.2,520,470,520,472.9z"/>
	<path d="M543.1,464.2h1.8l0.9-4.8c0.3-1.1,1-1.6,2.3-1.6c1.2,0,1.9,0.7,1.9,1.9v4.5h4.5c1.2,0,1.9,0.6,1.9,1.9v0.8
		c0,1.2-0.7,1.9-1.9,1.9H550v20.5c0,2.6,1,3.8,3.5,3.8c1.9,0,3.5-0.5,3.5,1.4v1.1c0,1.6-1.6,2.3-4.4,2.3c-5.5,0-7.9-3.3-7.9-8.4
		v-20.6h-1.6c-1.2,0-1.9-0.6-1.9-1.9V466C541.2,464.8,541.9,464.2,543.1,464.2z"/>
	<path d="M566.8,460.8c-2.4,0-3.2-1.3-3.2-3c0-1.7,0.8-3,3.2-3c2.3,0,3.1,1.3,3.1,3C569.9,459.6,569.1,460.8,566.8,460.8z
		 M566,464.5h1.5c1.2,0,1.9,0.7,1.9,1.9v29.2c0,1.2-0.7,1.9-1.9,1.9H566c-1.2,0-1.9-0.7-1.9-1.9v-29.2
		C564,465.2,564.7,464.5,566,464.5z"/>
	<path d="M579.5,495.6V466c0-1.2,0.7-1.9,1.9-1.9h1.3c1.2,0,1.9,0.6,1.9,1.9v1.6c0.6-1.3,2.7-3.7,6.8-3.7c5,0,7.8,3.2,7.8,8.1v23.5
		c0,1.2-0.6,1.9-1.9,1.9h-1.5c-1.2,0-1.9-0.7-1.9-1.9V473c0-2.8-1.5-4.4-4.3-4.4c-2.5,0-4.7,1.5-4.7,4.3v22.7c0,1.2-0.7,1.9-1.9,1.9
		h-1.5C580.2,497.5,579.5,496.8,579.5,495.6z"/>
	<path d="M628,466.3c-0.8,0-1.6,0.2-2.2,0.6c1.1,1.4,1.6,3.3,1.6,5.4v4.9c0,5.3-3.2,8.7-10.2,8.7c-1.7,0-2.6,0.9-2.6,2.6
		c0,1.6,0.8,2.3,3.4,2.3h3.3c5.8,0,8.3,2.3,8.3,6.9v1c0,4.8-3.2,7.8-11,7.8h-2.3c-3.5,0-6.3-0.5-8.2-1.3c-1-0.4-1.3-1.2-1.3-2.2
		v-1.1c0-1.4,1-1.8,2.3-1.3c2.2,0.8,4.2,1.3,7.2,1.3h1.9c4.9,0,6.5-1.2,6.5-3.3V498c0-1.7-0.5-2.8-3.5-2.8h-3.6
		c-4.8,0-7.5-1.6-7.5-5v-0.9c0-2.1,1.3-3.5,3.2-4c-4.1-1.1-6-4.1-6-8.1v-4.9c0-5.3,3.2-8.7,10.2-8.7c2.7,0,4.8,0.5,6.4,1.4
		c0.8-2.4,2.6-3.7,4.8-3.7c1.2,0,1.6,0.5,1.6,1.5v1.6C630.1,465.6,629.7,466.3,628,466.3z M622.3,472.2c0-2.8-1.5-4.2-4.9-4.2
		s-4.9,1.5-4.9,4.2v4.9c0,2.8,1.5,4.2,4.9,4.2s4.9-1.5,4.9-4.2V472.2z"/>
</g>
<path fill="#65C1C2" d="M247,241.4V286c2.4-4.7,11.3-14.2,28.9-14.2c22.8,0,35.9,14.4,35.9,38v73.2c0,25.7-16.3,40.7-39.6,40.7
	h-40.4c-5.5,0-8.7-3.1-8.7-8.7V241.4c0-5.5,3.1-8.4,8.7-8.4h6.6C243.8,233,247,235.9,247,241.4z M266.6,402.5
	c13.6,0,21.2-7.1,21.2-20.7v-69.3c0-12.9-7.1-19.7-19.7-19.7c-11.5,0-21,6.6-21,19.2v90.5H266.6z"/>
<path fill="#65C1C2" d="M357.9,241.4V286c2.4-4.7,11.3-14.2,28.9-14.2c22.8,0,35.9,14.4,35.9,38v73.2c0,25.7-16.3,40.7-39.6,40.7
	h-40.4c-5.5,0-8.7-3.1-8.7-8.7V241.4c0-5.5,3.1-8.4,8.7-8.4h6.6C354.8,233,357.9,235.9,357.9,241.4z M377.6,402.5
	c13.6,0,21.2-7.1,21.2-20.7v-69.3c0-12.9-7.1-19.7-19.7-19.7c-11.5,0-21,6.6-21,19.2v90.5H377.6z"/>
<path fill="#65C1C2" d="M51.2,423.7c-17.1,0-24.9-7.3-27-10.8v117.3c0,5.5-3.1,8.7-8.7,8.7H8.7c-5.5,0-8.7-3.1-8.7-8.7V281.6
	c0-5.5,3.1-8.4,8.7-8.4h6.6c5.5,0,8.7,2.4,8.7,7.1v6c2.4-4.7,11.3-14.2,28.9-14.2c22.8,0,35.9,14.4,35.9,38v74.2
	C88.7,409.8,73.7,423.7,51.2,423.7z M45.1,403c12.6,0,19.7-6.6,19.7-19.4v-70.8c0-12.9-7.1-19.4-19.7-19.4c-11.5,0-21,6.3-21,19.2
	v71.4C24.1,396.7,33.6,403,45.1,403z"/>
<path fill="#65C1C2" d="M134.4,355.3v28.9c0,12.9,6.6,21,21.5,21c15,0,21.5-7.9,21.5-20.2V382c0-5,3.1-8.1,8.7-8.1h6.3
	c5.5,0,8.4,2.9,8.4,7.9v2.6c0,25.7-15.7,42-44.9,42s-45.1-16.5-45.1-42.2v-71.4c0-26,16-42.2,45.1-42.2s44.9,16.3,44.9,42.2v33.3
	c0,3.4-1,5.8-3.1,7.3c-1.6,1-3.4,1.8-6,1.8H134.4z M134.4,312.5v23.3h43v-23.3c0-12.9-6.3-21-21.5-21
	C140.7,291.5,134.4,299.7,134.4,312.5z"/>
<path fill="#65C1C2" d="M514.5,355.3v28.9c0,12.9,6.6,21,21.5,21c15,0,21.5-7.9,21.5-20.2V382c0-5,3.1-8.1,8.7-8.1h6.3
	c5.5,0,8.4,2.9,8.4,7.9v2.6c0,25.7-15.7,42-44.9,42c-29.1,0-45.1-16.5-45.1-42.2v-71.4c0-26,16-42.2,45.1-42.2
	c29.1,0,44.9,16.3,44.9,42.2v33.3c0,3.4-1.1,5.8-3.2,7.3c-1.6,1-3.4,1.8-6,1.8H514.5z M514.5,312.5v23.3h43v-23.3
	c0-12.9-6.3-21-21.5-21C520.8,291.5,514.5,299.7,514.5,312.5z"/>
<path fill="#65C1C2" d="M650.4,296.8c-7.9,0-14.2,1.6-18.1,5.5c-3.4,3.4-5,8.4-5,15.7v97.1c0,5.5-3.1,8.7-8.7,8.7h-6.8
	c-5.5,0-8.7-3.1-8.7-8.7V281.6c0-5.5,3.1-8.4,8.7-8.4h5.8c5.5,0,8.4,2.9,8.4,8.4v11c1.8-8.7,10.8-20.5,26.5-20.5
	c5.5,0,7.1,2.6,7.1,6.8v7.3C659.6,295.2,656.7,296.5,650.4,296.8z"/>
<path d="M380.2,249.3V115.8c0-5.5,3.1-8.4,8.7-8.4h5.8c5.5,0,8.4,2.9,8.4,8.4v7.1c2.6-6,12.1-16.5,30.7-16.5
	c22.6,0,35.2,14.4,35.2,36.7v106.2c0,5.5-2.9,8.7-8.4,8.7h-6.8c-5.5,0-8.7-3.1-8.7-8.7V147.3c0-12.9-6.6-19.9-19.4-19.9
	c-11.3,0-21.2,6.8-21.2,19.4v102.6c0,5.5-3.1,8.7-8.7,8.7h-6.8C383.4,258,380.2,254.8,380.2,249.3z"/>
<path d="M514.5,189.5v28.9c0,12.9,6.6,21,21.5,21c15,0,21.5-7.9,21.5-20.2v-2.9c0-5,3.1-8.1,8.7-8.1h6.3c5.5,0,8.4,2.9,8.4,7.9v2.6
	c0,25.7-15.7,42-44.9,42s-45.1-16.5-45.1-42.2V147c0-26,16-42.2,45.1-42.2s44.9,16.3,44.9,42.2v33.3c0,3.4-1.1,5.8-3.1,7.3
	c-1.6,1-3.4,1.8-6,1.8H514.5z M514.5,146.8v23.3h43v-23.3c0-12.9-6.3-21-21.5-21S514.5,133.9,514.5,146.8z"/>
<path d="M349.3,107.3h-6.6c-5.5,0-8.7,2.9-8.7,8.4v0.1c0,0,0,0,0,0.1v102.6c0,12.9-10,19.7-21.2,19.7c-12.9,0-19.4-7.1-19.4-20.2
	V115.8c0-5.5-3.1-8.4-8.7-8.4h-6.8c-5.5,0-8.7,2.9-8.7,8.4v105.5c0,22.3,12.1,37.8,35.2,37.8c17.6,0,26.5-8.4,29.6-14.2v4.5
	c0,5.5,3.1,8.7,8.7,8.7h1h5.5h0.3c5.5,0,8.4-3.1,8.4-8.7V115.8v-0.2C357.9,110.1,354.8,107.3,349.3,107.3z"/>
<path d="M238.6,0h-6.8c-5.5,0-8.7,2.9-8.7,8.4v107.2c0,0,0,0,0,0.1v4.9c-1.6-3.4-9.7-12.6-27.3-12.6c-22.3,0-37.5,14.2-37.5,39.6
	v72.9c0,23.6,12.9,38.6,36.2,38.6c17.5,0,25.9-9.1,28.6-13.9v4.2c0,1.1,0.1,2.2,0.4,3.1c0.6,3.2,3.2,5.2,7.2,5.5c0,0,0.1,0,0.1,0
	c0.1,0,0.3,0,0.4,0c0.2,0,0.4,0,0.6,0h6.6c0,0,0,0,0.1,0h0.2c5.5,0,8.4-3.1,8.4-8.7V8.4C247,2.9,244.1,0,238.6,0z M202.1,237.8
	c-12.6,0-19.7-6.6-19.7-19.7v-69.8c0-12.9,7.1-19.4,19.7-19.4c11.5,0,20.9,6.3,21,19.1v70.8C223,231.3,213.6,237.8,202.1,237.8z"/>
<path fill="#65C1C2" d="M453.7,233h6.6c5.5,0,8.7,2.9,8.7,8.4v173.7c0,5.5-3.1,8.7-8.7,8.7h-6.6c-5.5,0-8.7-3.1-8.7-8.7V241.4
	C445,235.9,448.2,233,453.7,233z"/>
</svg>
