<svg xmlns="http://www.w3.org/2000/svg" width="99.366" height="115.577" viewBox="0 0 99.366 115.577">
  <g id="Group_274" data-name="Group 274" transform="translate(-850.304 -357.62)">
    <path id="Path_140" data-name="Path 140" d="M946.17,406.751H853.8a3.5,3.5,0,0,0-3.5,3.5v13.264a49.683,49.683,0,0,0,99.366,0V410.251A3.5,3.5,0,0,0,946.17,406.751Zm-3.5,16.764a42.683,42.683,0,0,1-85.366,0v-9.764H942.67Z" fill="#fff"/>
    <circle id="Ellipse_30" data-name="Ellipse 30" cx="15.826" cy="15.826" r="15.826" transform="matrix(0.924, -0.383, 0.383, 0.924, 856.735, 369.733)" fill="#fff"/>
    <path id="Path_141" data-name="Path 141" d="M914.921,382.542h23.467a3.5,3.5,0,0,0,0-7H914.921a3.5,3.5,0,0,0,0,7Z" fill="#fff"/>
  </g>
</svg>
