<?xml version="1.0" encoding="utf-8"?>
<!-- Generator: Adobe Illustrator 24.0.1, SVG Export Plug-In . SVG Version: 6.00 Build 0)  -->
<svg version="1.1" id="Laag_1" xmlns="http://www.w3.org/2000/svg" xmlns:xlink="http://www.w3.org/1999/xlink" x="0px" y="0px"
	 viewBox="0 0 188 153.6" style="enable-background:new 0 0 188 153.6;" xml:space="preserve">
<style type="text/css">
	.st0{fill:#FFFFFF;}
	.st1{fill:#65C1C2;}
	.st2{fill:#161616;}
</style>
<g>
	<path class="st0" d="M31.6,141.3v-11c0-0.3,0.2-0.5,0.5-0.5h0.4c0.3,0,0.5,0.2,0.5,0.5v3c0.1-0.3,0.7-1,1.9-1
		c1.4,0,2.2,0.9,2.2,2.3v6.7c0,0.3-0.2,0.5-0.5,0.5h-0.4c-0.3,0-0.5-0.2-0.5-0.5v-6.4c0-0.8-0.4-1.3-1.2-1.3c-0.7,0-1.3,0.4-1.3,1.2
		v6.4c0,0.3-0.2,0.5-0.5,0.5h-0.4C31.8,141.8,31.6,141.6,31.6,141.3z"/>
	<path class="st0" d="M45.3,134.7v6.6c0,0.3-0.2,0.5-0.5,0.5h-0.4c-0.3,0-0.5-0.2-0.5-0.5v-0.4c-0.2,0.5-0.7,1.1-1.9,1.1
		c-1.6,0-2.4-0.8-2.4-2.3v-0.5c0-1.2,0.6-1.9,1.9-2.3l2.3-0.8v-1.4c0-0.8-0.4-1.2-1.3-1.2c-1,0-1.3,0.4-1.3,1.2v0.1
		c0,0.3-0.2,0.5-0.5,0.5h-0.4c-0.3,0-0.5-0.2-0.5-0.5v-0.1c0-1.6,1-2.6,2.8-2.6C44.4,132.1,45.3,133.1,45.3,134.7z M43.8,139.4v-2
		l-1.7,0.5c-0.8,0.3-1.1,0.6-1.1,1.3v0.4c0,0.7,0.4,1.1,1.3,1.1C43.4,140.7,43.8,140.1,43.8,139.4z"/>
	<path class="st0" d="M51.4,141.8c-1.1,0-1.6-0.5-1.7-0.7v2.9c0,0.3-0.2,0.5-0.5,0.5h-0.4c-0.3,0-0.5-0.2-0.5-0.5v-11.3
		c0-0.3,0.2-0.5,0.5-0.5h0.4c0.3,0,0.5,0.1,0.5,0.4v0.4c0.1-0.3,0.7-0.9,1.8-0.9c1.4,0,2.3,0.9,2.3,2.4v4.7
		C53.7,140.9,52.8,141.8,51.4,141.8z M51,140.5c0.8,0,1.2-0.4,1.2-1.2v-4.5c0-0.8-0.4-1.2-1.2-1.2c-0.7,0-1.3,0.4-1.3,1.2v4.5
		C49.7,140.1,50.2,140.5,51,140.5z"/>
	<path class="st0" d="M59.7,141.8c-1.1,0-1.6-0.5-1.7-0.7v2.9c0,0.3-0.2,0.5-0.5,0.5H57c-0.3,0-0.5-0.2-0.5-0.5v-11.3
		c0-0.3,0.2-0.5,0.5-0.5h0.4c0.3,0,0.5,0.1,0.5,0.4v0.4c0.1-0.3,0.7-0.9,1.8-0.9c1.4,0,2.3,0.9,2.3,2.4v4.7
		C62.1,140.9,61.1,141.8,59.7,141.8z M59.3,140.5c0.8,0,1.2-0.4,1.2-1.2v-4.5c0-0.8-0.4-1.2-1.2-1.2c-0.7,0-1.3,0.4-1.3,1.2v4.5
		C58,140.1,58.6,140.5,59.3,140.5z"/>
	<path class="st0" d="M64.4,132.3h0.4c0.3,0,0.5,0.2,0.6,0.5l0.8,3.3c0.5,2.1,0.7,3.5,0.7,3.5s0.2-1.4,0.7-3.5l0.8-3.3
		c0.1-0.3,0.3-0.5,0.6-0.5h0.4c0.4,0,0.6,0.2,0.5,0.6l-2.2,9c-0.4,1.6-1.3,2.5-2.9,2.5h-0.1c-0.3,0-0.5-0.2-0.5-0.5v-0.2
		c0-0.3,0.2-0.5,0.5-0.5l0.1,0c0.8,0,1.3-0.7,1.3-1.5c0-0.2,0-0.4-0.1-0.6l-2-8C63.9,132.5,64,132.3,64.4,132.3z"/>
	<path class="st0" d="M79.6,139.1c0-0.3,0.2-0.5,0.5-0.5h0.4c0.3,0,0.5,0.2,0.5,0.5v0.2c0,1.6-1,2.7-2.8,2.7c-1.9,0-2.8-1-2.8-2.7
		v-4.5c0-1.6,1-2.7,2.8-2.7c1.8,0,2.8,1,2.8,2.7v0.2c0,0.3-0.2,0.5-0.5,0.5h-0.4c-0.3,0-0.5-0.2-0.5-0.5v-0.2c0-0.8-0.4-1.3-1.3-1.3
		c-0.9,0-1.3,0.5-1.3,1.3v4.5c0,0.8,0.4,1.3,1.3,1.3c0.9,0,1.3-0.5,1.3-1.3V139.1z"/>
	<path class="st0" d="M89.2,132.8v8.4c0,0.3-0.2,0.5-0.5,0.5h-0.4c-0.3,0-0.5-0.2-0.5-0.5v-0.4c-0.1,0.3-0.7,1-1.9,1
		c-1.5,0-2.2-1-2.2-2.4v-6.7c0-0.3,0.2-0.5,0.5-0.5h0.4c0.3,0,0.5,0.2,0.5,0.5v6.4c0,0.8,0.4,1.3,1.2,1.3c0.7,0,1.3-0.4,1.3-1.2
		v-6.5c0-0.3,0.2-0.5,0.5-0.5h0.4C89,132.3,89.2,132.5,89.2,132.8z"/>
	<path class="st0" d="M97.2,139.1v0.4c0,1.6-1,2.5-2.8,2.5c-1.8,0-2.8-0.9-2.8-2.5v0c0-0.3,0.1-0.5,0.5-0.5h0.4
		c0.4,0,0.5,0.2,0.5,0.6v0c0,0.8,0.3,1.2,1.3,1.2c0.9,0,1.3-0.4,1.3-1.2v-0.3c0-0.5-0.2-0.9-0.9-1.2l-1.7-0.8
		c-0.9-0.4-1.5-1.1-1.5-2.2v-0.3c0-1.6,0.9-2.5,2.7-2.5c1.8,0,2.7,0.9,2.7,2.5v0.1c0,0.3-0.1,0.5-0.5,0.5h-0.4
		c-0.4,0-0.5-0.2-0.5-0.5v-0.1c0-0.8-0.3-1.2-1.2-1.2c-0.9,0-1.2,0.4-1.2,1.2v0.2c0,0.6,0.2,0.9,0.8,1.2l1.7,0.8
		C96.6,137.3,97.2,138,97.2,139.1z"/>
	<path class="st0" d="M99.3,132.3h0.5l0.2-1.4c0.1-0.3,0.3-0.5,0.6-0.5c0.3,0,0.5,0.2,0.5,0.5v1.3h1.3c0.3,0,0.5,0.2,0.5,0.5v0.2
		c0,0.3-0.2,0.5-0.5,0.5h-1.3v5.8c0,0.7,0.3,1.1,1,1.1c0.5,0,1-0.1,1,0.4v0.3c0,0.4-0.5,0.7-1.2,0.7c-1.6,0-2.3-0.9-2.3-2.4v-5.9
		h-0.4c-0.3,0-0.5-0.2-0.5-0.5v-0.2C98.7,132.5,98.9,132.3,99.3,132.3z"/>
	<path class="st0" d="M107.8,142c-1.8,0-2.8-1-2.8-2.7v-4.5c0-1.6,1-2.7,2.8-2.7c1.9,0,2.8,1,2.8,2.7v4.5
		C110.7,140.9,109.7,142,107.8,142z M107.8,133.5c-0.9,0-1.3,0.5-1.3,1.3v4.5c0,0.8,0.4,1.3,1.3,1.3c0.9,0,1.3-0.5,1.3-1.3v-4.5
		C109.2,134,108.8,133.5,107.8,133.5z"/>
	<path class="st0" d="M113.4,141.3v-8.4c0-0.3,0.2-0.5,0.5-0.5h0.4c0.3,0,0.5,0.2,0.5,0.5v0.4c0.2-0.4,0.7-1,1.9-1
		c1,0,1.7,0.4,2,1.2c0.2-0.5,0.8-1.2,2.1-1.2c1.4,0,2.2,0.9,2.2,2.3v6.7c0,0.3-0.2,0.5-0.5,0.5H122c-0.3,0-0.5-0.2-0.5-0.5v-6.4
		c0-0.8-0.4-1.3-1.2-1.3c-0.7,0-1.3,0.4-1.3,1.3v6.4c0,0.3-0.2,0.5-0.5,0.5H118c-0.3,0-0.5-0.2-0.5-0.5v-6.4c0-0.8-0.4-1.3-1.2-1.3
		c-0.7,0-1.3,0.4-1.3,1.2v6.5c0,0.3-0.2,0.5-0.5,0.5h-0.4C113.6,141.8,113.4,141.6,113.4,141.3z"/>
	<path class="st0" d="M131.1,134.7v6.6c0,0.3-0.2,0.5-0.5,0.5h-0.4c-0.3,0-0.5-0.2-0.5-0.5v-0.4c-0.2,0.5-0.7,1.1-1.9,1.1
		c-1.6,0-2.4-0.8-2.4-2.3v-0.5c0-1.2,0.6-1.9,1.9-2.3l2.3-0.8v-1.4c0-0.8-0.4-1.2-1.3-1.2c-1,0-1.3,0.4-1.3,1.2v0.1
		c0,0.3-0.2,0.5-0.5,0.5H126c-0.3,0-0.5-0.2-0.5-0.5v-0.1c0-1.6,1-2.6,2.8-2.6C130.2,132.1,131.1,133.1,131.1,134.7z M129.6,139.4
		v-2l-1.7,0.5c-0.8,0.3-1.1,0.6-1.1,1.3v0.4c0,0.7,0.4,1.1,1.3,1.1C129.2,140.7,129.6,140.1,129.6,139.4z"/>
	<path class="st0" d="M136.9,133.8c-0.5,0-0.9,0.1-1.1,0.3c-0.2,0.2-0.3,0.5-0.3,1v6.1c0,0.3-0.2,0.5-0.5,0.5h-0.4
		c-0.3,0-0.5-0.2-0.5-0.5v-8.4c0-0.3,0.2-0.5,0.5-0.5h0.4c0.3,0,0.5,0.2,0.5,0.5v0.7c0.1-0.5,0.7-1.3,1.7-1.3c0.3,0,0.4,0.2,0.4,0.4
		v0.5C137.5,133.7,137.3,133.8,136.9,133.8z"/>
	<path class="st0" d="M139.9,129.8h0.4c0.3,0,0.5,0.2,0.5,0.5v11c0,0.3-0.2,0.5-0.5,0.5h-0.4c-0.3,0-0.5-0.2-0.5-0.5v-11
		C139.4,129.9,139.6,129.8,139.9,129.8z M144.6,132.9l-1.7,3.9l1.9,4.3c0.2,0.4,0,0.6-0.4,0.6h-0.5c-0.3,0-0.5-0.1-0.6-0.4l-1.8-4.1
		c-0.1-0.2-0.1-0.5,0-0.7l1.7-3.8c0.1-0.3,0.3-0.4,0.6-0.4h0.4C144.6,132.3,144.7,132.6,144.6,132.9z"/>
	<path class="st0" d="M148.2,137.5v1.8c0,0.8,0.4,1.3,1.4,1.3c0.9,0,1.4-0.5,1.4-1.3v-0.2c0-0.3,0.2-0.5,0.5-0.5h0.4
		c0.3,0,0.5,0.2,0.5,0.5v0.2c0,1.6-1,2.7-2.8,2.7c-1.8,0-2.8-1-2.8-2.7v-4.5c0-1.6,1-2.7,2.8-2.7c1.8,0,2.8,1,2.8,2.7v2.1
		c0,0.2-0.1,0.4-0.2,0.5c-0.1,0.1-0.2,0.1-0.4,0.1H148.2z M148.2,134.8v1.5h2.7v-1.5c0-0.8-0.4-1.3-1.4-1.3
		C148.6,133.5,148.2,134,148.2,134.8z"/>
	<path class="st0" d="M154.8,132.3h0.5l0.2-1.4c0.1-0.3,0.3-0.5,0.6-0.5c0.3,0,0.5,0.2,0.5,0.5v1.3h1.3c0.3,0,0.5,0.2,0.5,0.5v0.2
		c0,0.3-0.2,0.5-0.5,0.5h-1.3v5.8c0,0.7,0.3,1.1,1,1.1c0.5,0,1-0.1,1,0.4v0.3c0,0.4-0.5,0.7-1.2,0.7c-1.6,0-2.3-0.9-2.3-2.4v-5.9
		h-0.4c-0.3,0-0.5-0.2-0.5-0.5v-0.2C154.3,132.5,154.5,132.3,154.8,132.3z"/>
	<path class="st0" d="M161.6,131.4c-0.7,0-0.9-0.4-0.9-0.9c0-0.5,0.2-0.9,0.9-0.9c0.7,0,0.9,0.4,0.9,0.9
		C162.4,131,162.2,131.4,161.6,131.4z M161.3,132.4h0.4c0.3,0,0.5,0.2,0.5,0.5v8.3c0,0.3-0.2,0.5-0.5,0.5h-0.4
		c-0.3,0-0.5-0.2-0.5-0.5v-8.3C160.8,132.6,161,132.4,161.3,132.4z"/>
	<path class="st0" d="M165.2,141.3v-8.4c0-0.3,0.2-0.5,0.5-0.5h0.4c0.3,0,0.5,0.2,0.5,0.5v0.4c0.2-0.4,0.8-1,1.9-1
		c1.4,0,2.2,0.9,2.2,2.3v6.7c0,0.3-0.2,0.5-0.5,0.5h-0.4c-0.3,0-0.5-0.2-0.5-0.5v-6.4c0-0.8-0.4-1.3-1.2-1.3c-0.7,0-1.3,0.4-1.3,1.2
		v6.5c0,0.3-0.2,0.5-0.5,0.5h-0.4C165.4,141.8,165.2,141.6,165.2,141.3z"/>
	<path class="st0" d="M179,132.9c-0.2,0-0.4,0-0.6,0.2c0.3,0.4,0.5,0.9,0.5,1.5v1.4c0,1.5-0.9,2.5-2.9,2.5c-0.5,0-0.7,0.2-0.7,0.7
		c0,0.4,0.2,0.6,1,0.6h0.9c1.6,0,2.4,0.7,2.4,2v0.3c0,1.4-0.9,2.2-3.1,2.2h-0.6c-1,0-1.8-0.1-2.3-0.4c-0.3-0.1-0.4-0.3-0.4-0.6V143
		c0-0.4,0.3-0.5,0.6-0.4c0.6,0.2,1.2,0.4,2,0.4h0.5c1.4,0,1.8-0.3,1.8-0.9v-0.1c0-0.5-0.1-0.8-1-0.8h-1c-1.4,0-2.1-0.5-2.1-1.4v-0.3
		c0-0.6,0.4-1,0.9-1.1c-1.2-0.3-1.7-1.2-1.7-2.3v-1.4c0-1.5,0.9-2.5,2.9-2.5c0.8,0,1.4,0.1,1.8,0.4c0.2-0.7,0.7-1.1,1.4-1.1
		c0.3,0,0.5,0.1,0.5,0.4v0.5C179.6,132.7,179.5,132.9,179,132.9z M177.4,134.6c0-0.8-0.4-1.2-1.4-1.2s-1.4,0.4-1.4,1.2v1.4
		c0,0.8,0.4,1.2,1.4,1.2s1.4-0.4,1.4-1.2V134.6z"/>
</g>
<path class="st1" d="M70.4,68.8v12.7c0.7-1.3,3.2-4,8.2-4c6.5,0,10.2,4.1,10.2,10.8v20.9c0,7.3-4.6,11.6-11.3,11.6H66.1
	c-1.6,0-2.5-0.9-2.5-2.5V68.8c0-1.6,0.9-2.4,2.5-2.4h1.9C69.5,66.4,70.4,67.2,70.4,68.8z M76,114.7c3.9,0,6.1-2,6.1-5.9V89.1
	c0-3.7-2-5.6-5.6-5.6c-3.3,0-6,1.9-6,5.5v25.8H76z"/>
<path class="st1" d="M102,68.8v12.7c0.7-1.3,3.2-4,8.2-4c6.5,0,10.2,4.1,10.2,10.8v20.9c0,7.3-4.6,11.6-11.3,11.6H97.7
	c-1.6,0-2.5-0.9-2.5-2.5V68.8c0-1.6,0.9-2.4,2.5-2.4h1.9C101.1,66.4,102,67.2,102,68.8z M107.6,114.7c3.9,0,6.1-2,6.1-5.9V89.1
	c0-3.7-2-5.6-5.6-5.6c-3.3,0-6,1.9-6,5.5v25.8H107.6z"/>
<path class="st1" d="M14.6,120.8c-4.9,0-7.1-2.1-7.7-3.1v33.4c0,1.6-0.9,2.5-2.5,2.5H2.5c-1.6,0-2.5-0.9-2.5-2.5V80.3
	c0-1.6,0.9-2.4,2.5-2.4h1.9c1.6,0,2.5,0.7,2.5,2v1.7c0.7-1.3,3.2-4,8.2-4c6.5,0,10.2,4.1,10.2,10.8v21.2
	C25.3,116.8,21,120.8,14.6,120.8z M12.9,114.9c3.6,0,5.6-1.9,5.6-5.5V89.2c0-3.7-2-5.5-5.6-5.5c-3.3,0-6,1.8-6,5.5v20.3
	C6.9,113.1,9.6,114.9,12.9,114.9z"/>
<path class="st1" d="M38.3,101.3v8.2c0,3.7,1.9,6,6.1,6c4.3,0,6.1-2.2,6.1-5.8v-0.8c0-1.4,0.9-2.3,2.5-2.3h1.8
	c1.6,0,2.4,0.8,2.4,2.2v0.7c0,7.3-4.5,12-12.8,12s-12.9-4.7-12.9-12V89.2c0-7.4,4.6-12,12.9-12s12.8,4.6,12.8,12v9.5
	c0,1-0.3,1.6-0.9,2.1c-0.4,0.3-1,0.5-1.7,0.5H38.3z M38.3,89.1v6.7h12.3v-6.7c0-3.7-1.8-6-6.1-6S38.3,85.4,38.3,89.1z"/>
<path class="st1" d="M146.7,101.3v8.2c0,3.7,1.9,6,6.1,6c4.3,0,6.1-2.2,6.1-5.8v-0.8c0-1.4,0.9-2.3,2.5-2.3h1.8
	c1.6,0,2.4,0.8,2.4,2.2v0.7c0,7.3-4.5,12-12.8,12s-12.9-4.7-12.9-12V89.2c0-7.4,4.6-12,12.9-12s12.8,4.6,12.8,12v9.5
	c0,1-0.3,1.6-0.9,2.1c-0.4,0.3-1,0.5-1.7,0.5H146.7z M146.7,89.1v6.7h12.3v-6.7c0-3.7-1.8-6-6.1-6S146.7,85.4,146.7,89.1z"/>
<path class="st1" d="M185.4,84.6c-2.2,0-4,0.4-5.2,1.6c-1,1-1.4,2.4-1.4,4.5v27.7c0,1.6-0.9,2.5-2.5,2.5h-1.9
	c-1.6,0-2.5-0.9-2.5-2.5V80.3c0-1.6,0.9-2.4,2.5-2.4h1.6c1.6,0,2.4,0.8,2.4,2.4v3.1c0.5-2.5,3.1-5.8,7.6-5.8c1.6,0,2,0.7,2,1.9v2.1
	C188,84.1,187.2,84.5,185.4,84.6z"/>
<path class="st2" d="M108.4,71.1V33c0-1.6,0.9-2.4,2.5-2.4h1.6c1.6,0,2.4,0.8,2.4,2.4v2c0.7-1.7,3.4-4.7,8.7-4.7
	c6.4,0,10,4.1,10,10.5v30.3c0,1.6-0.8,2.5-2.4,2.5h-1.9c-1.6,0-2.5-0.9-2.5-2.5V42c0-3.7-1.9-5.7-5.5-5.7c-3.2,0-6.1,1.9-6.1,5.5
	v29.2c0,1.6-0.9,2.5-2.5,2.5h-1.9C109.3,73.5,108.4,72.6,108.4,71.1z"/>
<path class="st2" d="M146.7,54v8.2c0,3.7,1.9,6,6.1,6c4.3,0,6.1-2.2,6.1-5.8v-0.8c0-1.4,0.9-2.3,2.5-2.3h1.8c1.6,0,2.4,0.8,2.4,2.2
	v0.7c0,7.3-4.5,12-12.8,12c-8.3,0-12.9-4.7-12.9-12V41.9c0-7.4,4.6-12,12.9-12c8.3,0,12.8,4.6,12.8,12v9.5c0,1-0.3,1.6-0.9,2.1
	c-0.4,0.3-1,0.5-1.7,0.5H146.7z M146.7,41.8v6.7h12.3v-6.7c0-3.7-1.8-6-6.1-6C148.5,35.9,146.7,38.2,146.7,41.8z"/>
<path class="st2" d="M99.6,30.6h-1.9c-1.6,0-2.5,0.8-2.5,2.4v0c0,0,0,0,0,0v29.2c0,3.7-2.8,5.6-6.1,5.6c-3.7,0-5.5-2-5.5-5.8V33
	c0-1.6-0.9-2.4-2.5-2.4h-1.9c-1.6,0-2.5,0.8-2.5,2.4v30.1c0,6.4,3.4,10.8,10,10.8c5,0,7.5-2.4,8.5-4v1.3c0,1.6,0.9,2.5,2.5,2.5H98
	h1.6h0.1c1.6,0,2.4-0.9,2.4-2.5V33v0C102,31.4,101.1,30.6,99.6,30.6z"/>
<path class="st2" d="M68,0h-1.9c-1.6,0-2.5,0.8-2.5,2.4v30.6c0,0,0,0,0,0v1.4c-0.5-1-2.8-3.6-7.8-3.6c-6.4,0-10.7,4-10.7,11.3v20.8
	c0,6.7,3.7,11,10.3,11c5,0,7.4-2.6,8.2-4v1.2c0,0.3,0,0.6,0.1,0.9c0.2,0.9,0.9,1.5,2,1.6c0,0,0,0,0,0c0,0,0.1,0,0.1,0
	c0.1,0,0.1,0,0.2,0h1.9c0,0,0,0,0,0H68c1.6,0,2.4-0.9,2.4-2.5V2.4C70.4,0.8,69.6,0,68,0z M57.6,67.8c-3.6,0-5.6-1.9-5.6-5.6V42.3
	c0-3.7,2-5.5,5.6-5.5c3.3,0,6,1.8,6,5.4v20.2C63.6,65.9,60.9,67.8,57.6,67.8z"/>
<path class="st1" d="M129.3,66.4h1.9c1.6,0,2.5,0.8,2.5,2.4v49.5c0,1.6-0.9,2.5-2.5,2.5h-1.9c-1.6,0-2.5-0.9-2.5-2.5V68.8
	C126.8,67.2,127.7,66.4,129.3,66.4z"/>
</svg>
