<svg id="Laag_1" xmlns="http://www.w3.org/2000/svg" viewBox="0 0 761.9 779.7"><style>.st0{fill:#26cad3}.st1{opacity:.6;fill:url(#SVGID_1_);enable-background:new}.st2{fill:#fff}</style><circle class="st0" cx="375.4" cy="383.7" r="375.4"/><linearGradient id="SVGID_1_" gradientUnits="userSpaceOnUse" x1="4.5" y1="177.55" x2="746.3" y2="177.55" gradientTransform="matrix(1 0 0 -1 0 780.55)"><stop offset=".013" stop-color="#82b9b0"/><stop offset=".5" stop-color="#fff" stop-opacity=".8"/><stop offset="1" stop-color="#82b9b0"/></linearGradient><path class="st1" d="M746.3 445.2c-65.2 140-206.6 237.4-370.9 238.8-164.3-1.4-305.7-98.7-370.9-238.8 29.4 172.7 175.4 305.7 354.1 315.1v.3c4.3.1 8.7.2 13.1.2h7.4c4.4 0 8.7-.1 13.1-.2v-.3c178.6-9.4 324.6-142.4 354.1-315.1z"/><path class="st2" d="M247.7 210.1c45.4 0 64.3 22.1 70 32.8V15.8c0-10.1 5.7-15.8 15.8-15.8h10.7C354.3 0 360 5.7 360 15.8v536c0 10.7-5.7 16.4-15.8 16.4h-10.1c-10.1 0-15.8-5-15.8-14.5v-20.8c-5 11.3-25.2 37.2-72.5 37.2-54.2 0-85.7-34.7-85.7-91.4V302.8c0-58.6 33.4-92.7 87.6-92.7zm10.1 37.2c-36.6 0-55.5 19.5-55.5 56.7v172.1c0 36.6 18.9 56.1 55.5 56.1 32.8 0 59.9-18.9 59.9-54.8V302.2c0-36-27.1-54.9-59.9-54.9zM502.7 569.6c-45.4 0-64.3-22.1-70-32.8V764c0 10.1-5.7 15.8-15.8 15.8h-10.7c-10.1 0-15.8-5.7-15.8-15.8V228c0-10.7 5.7-16.4 15.8-16.4h10.1c10.1 0 15.8 5 15.8 14.5v20.8c5-11.3 25.2-37.2 72.5-37.2 54.2 0 85.7 34.7 85.7 91.4v175.8c0 58.6-33.4 92.7-87.6 92.7zm-10.1-37.2c36.6 0 55.5-19.5 55.5-56.7V303.6c0-36.6-18.9-56.1-55.5-56.1-32.8 0-59.9 18.9-59.9 54.8v175.2c0 36 27.1 54.9 59.9 54.9z"/><circle class="st2" cx="703.9" cy="209.7" r="53.5"/><path class="st0" d="M703.9 267.7c-32 0-58-26-58-58s26-58 58-58 58 26 58 58-26 58-58 58zm0-107c-27 0-49 22-49 49s22 49 49 49 49-22 49-49-22-49-49-49z"/><g><path class="st0" d="M719.1 244.3H716c-2 0-3.5-.9-4.3-3.2l-8.2-23.6h-8.4v23.4c0 2.1-1.1 3.4-3.3 3.4H689c-2.1 0-3.4-1.2-3.4-3.4v-62.5c0-2.1 1.2-3.3 3.4-3.3h14c12.6 0 18.4 6.8 18.4 16.5v9.3c0 6.6-2.8 12-8.7 14.7l9.1 24.6c.8 2.4-.2 4.1-2.7 4.1zM703 209.1c6.4 0 9-3.1 9-8.3v-9.2c0-5-2.6-8.4-9-8.4h-7.9V209l7.9.1z"/></g></svg>