<svg xmlns="http://www.w3.org/2000/svg" width="103.729" height="108.966" viewBox="0 0 103.729 108.966">
  <path id="Path_107" data-name="Path 107" d="M459.208,646.951a51.976,51.976,0,0,0,23.3-30.488H412.086a4.221,4.221,0,0,1,0-8.443h72.042a52.419,52.419,0,0,0,.3-5.52H412.086a4.221,4.221,0,0,1,0-8.443h71.656a51.407,51.407,0,0,0-1.218-5.52H412.086a4.221,4.221,0,0,1,0-8.443h67.285A51.866,51.866,0,1,0,449.8,651.373a20.6,20.6,0,0,0,23.677,6.865A20.632,20.632,0,0,1,459.208,646.951Zm-47.122-16.524a4.221,4.221,0,0,1,0-8.443H460.3a4.221,4.221,0,0,1,0,8.443Z" transform="translate(-380.698 -550.587)" fill="#e86f84"/>
</svg>
