<?xml version="1.0" encoding="utf-8"?>
<!-- Generator: Adobe Illustrator 24.0.1, SVG Export Plug-In . SVG Version: 6.00 Build 0)  -->
<svg version="1.1" id="Laag_1" xmlns="http://www.w3.org/2000/svg" xmlns:xlink="http://www.w3.org/1999/xlink" x="0px" y="0px"
	 viewBox="0 0 103.7 109" enable-background="new 0 0 103.7 109" xml:space="preserve">
<path id="Path_107" fill="#E86F84" d="M78.5,96.4c11.4-6.8,19.7-17.7,23.3-30.5H31.4c-2.3,0-4.2-1.9-4.2-4.2s1.9-4.2,4.2-4.2l0,0h72
	c0.2-1.8,0.3-3.7,0.3-5.5H31.4c-2.3,0-4.2-1.9-4.2-4.2s1.9-4.2,4.2-4.2l0,0H103c-0.3-1.9-0.7-3.7-1.2-5.5H31.4
	c-2.3,0-4.2-1.9-4.2-4.2s1.9-4.2,4.2-4.2l0,0h67.3C86.3,3.7,55.4-7.3,29.5,5.1C3.7,17.4-7.3,48.4,5.1,74.2
	c11.4,23.9,39,35.4,64,26.6c5.5,7.3,15.1,10.1,23.7,6.9C86.5,106.3,81.3,102.1,78.5,96.4z M31.4,79.8c-2.3,0-4.2-1.9-4.2-4.2
	s1.9-4.2,4.2-4.2l0,0h48.2c2.3,0,4.2,1.9,4.2,4.2s-1.9,4.2-4.2,4.2H31.4z M78.5,96.4c11.4-6.8,19.7-17.7,23.3-30.5H31.4
	c-2.3,0-4.2-1.9-4.2-4.2s1.9-4.2,4.2-4.2l0,0h72c0.2-1.8,0.3-3.7,0.3-5.5H31.4c-2.3,0-4.2-1.9-4.2-4.2s1.9-4.2,4.2-4.2l0,0H103
	c-0.3-1.9-0.7-3.7-1.2-5.5H31.4c-2.3,0-4.2-1.9-4.2-4.2s1.9-4.2,4.2-4.2l0,0h67.3C86.3,3.7,55.4-7.3,29.5,5.1
	C3.7,17.4-7.3,48.4,5.1,74.2c11.4,23.9,39,35.4,64,26.6c5.5,7.3,15.1,10.1,23.7,6.9C86.5,106.3,81.3,102.1,78.5,96.4z"/>
<circle fill="#E86F84" cx="51.9" cy="51.9" r="51.9"/>
</svg>
