<svg xmlns="http://www.w3.org/2000/svg" width="97.956" height="97.957" viewBox="0 0 97.956 97.957">
  <path id="Path_108" data-name="Path 108" d="M616.941,636.506H606.876A3.873,3.873,0,0,1,603,632.633v-1.159a3.873,3.873,0,0,1,3.874-3.873h1.158a3.874,3.874,0,0,0,3.874-3.873V604.759a3.873,3.873,0,0,0-3.873-3.873H597.972a3.873,3.873,0,0,1-3.873-3.873v-1.159a3.873,3.873,0,0,1,3.873-3.873h10.064a3.873,3.873,0,0,0,3.873-3.873V569.139a3.873,3.873,0,0,0-3.873-3.873h-1.159A3.873,3.873,0,0,0,603,569.139V579.2a3.873,3.873,0,0,1-3.873,3.873h-1.159A3.873,3.873,0,0,1,594.1,579.2V569.139a3.874,3.874,0,0,0-3.874-3.873H562.352a3.873,3.873,0,0,0-3.873,3.873V579.2a3.873,3.873,0,0,1-3.873,3.873h-1.159a3.873,3.873,0,0,1-3.874-3.873V569.139a3.873,3.873,0,0,0-3.873-3.873H526.731a3.873,3.873,0,0,1-3.873-3.873v-1.159a3.873,3.873,0,0,1,3.873-3.873h90.21a3.873,3.873,0,0,1,3.873,3.873v72.4A3.873,3.873,0,0,1,616.941,636.506Zm-45.685-62.335H581.32a3.873,3.873,0,0,1,3.873,3.873v27.874a3.873,3.873,0,0,0,3.873,3.873H599.13A3.873,3.873,0,0,1,603,613.664v1.16a3.873,3.873,0,0,1-3.873,3.873H580.161a3.873,3.873,0,0,1-3.873-3.874V604.76a3.873,3.873,0,0,0-3.873-3.873H553.446a3.873,3.873,0,0,0-3.873,3.873v10.064A3.873,3.873,0,0,1,545.7,618.7h-1.159a3.873,3.873,0,0,1-3.873-3.873V595.854a3.873,3.873,0,0,1,3.873-3.873h27.874a3.872,3.872,0,0,0,3.873-3.873v-1.159a3.873,3.873,0,0,0-3.873-3.873h-1.159a3.873,3.873,0,0,1-3.873-3.873v-1.159A3.873,3.873,0,0,1,571.256,574.171Zm-35.62,8.9h1.159a3.873,3.873,0,0,0,3.873-3.873v-1.159a3.873,3.873,0,0,0-3.873-3.873H526.731a3.873,3.873,0,0,0-3.873,3.873v72.4a3.873,3.873,0,0,0,3.873,3.873h90.21a3.873,3.873,0,0,0,3.873-3.873v-1.159a3.873,3.873,0,0,0-3.873-3.873H597.972a3.873,3.873,0,0,1-3.873-3.873V631.474a3.874,3.874,0,0,0-3.874-3.873H580.161a3.873,3.873,0,0,0-3.873,3.873v1.159a3.873,3.873,0,0,0,3.873,3.873h1.159a3.873,3.873,0,0,1,3.873,3.873v1.16a3.873,3.873,0,0,1-3.873,3.873H553.446a3.873,3.873,0,0,1-3.873-3.873V640.38a3.872,3.872,0,0,1,3.873-3.873H563.51a3.873,3.873,0,0,0,3.873-3.873v-18.97a3.873,3.873,0,0,0-3.873-3.873h-1.159a3.873,3.873,0,0,0-3.873,3.873v10.064A3.873,3.873,0,0,1,554.6,627.6H544.541a3.873,3.873,0,0,0-3.873,3.873v10.065a3.873,3.873,0,0,1-3.873,3.873h-1.159a3.873,3.873,0,0,1-3.873-3.873v-54.59A3.873,3.873,0,0,1,535.636,583.076Z" transform="translate(-522.858 -556.36)" fill="#51ac86" fill-rule="evenodd"/>
</svg>
