<?xml version="1.0" encoding="utf-8"?>
<!-- Generator: Adobe Illustrator 24.0.1, SVG Export Plug-In . SVG Version: 6.00 Build 0)  -->
<svg version="1.1" id="Laag_1" xmlns="http://www.w3.org/2000/svg" xmlns:xlink="http://www.w3.org/1999/xlink" x="0px" y="0px"
	 viewBox="0 0 105.3 105.3" style="enable-background:new 0 0 105.3 105.3;" xml:space="preserve">
<style type="text/css">
	.st0{fill-rule:evenodd;clip-rule:evenodd;fill:#F3B349;}
</style>
<g id="Group_49" transform="translate(-809.933 -552.238)">
	<path id="Path_110" class="st0" d="M809.9,581.3v70.8c0,3,2.4,5.4,5.4,5.4h94.4c3,0,5.4-2.4,5.4-5.4v-70.8H809.9z"/>
	<path id="Path_111" class="st0" d="M915.2,572.8v-15.2c0-3-2.4-5.4-5.4-5.4c0,0,0,0,0,0h-94.4c-3,0-5.4,2.4-5.4,5.4c0,0,0,0,0,0
		v15.2H915.2z M844.2,558.1c2.1,0,3.9,1.7,3.9,3.9s-1.7,3.9-3.9,3.9s-3.9-1.7-3.9-3.9c0,0,0,0,0,0
		C840.3,559.8,842.1,558.1,844.2,558.1C844.2,558.1,844.2,558.1,844.2,558.1z M832.6,558.1c2.1,0,3.9,1.7,3.9,3.9s-1.7,3.9-3.9,3.9
		s-3.9-1.7-3.9-3.9c0,0,0,0,0,0C828.7,559.8,830.5,558.1,832.6,558.1C832.6,558.1,832.6,558.1,832.6,558.1z M821,558.1
		c2.1,0,3.9,1.7,3.9,3.9s-1.7,3.9-3.9,3.9s-3.9-1.7-3.9-3.9c0,0,0,0,0,0C817.2,559.8,818.9,558.1,821,558.1
		C821,558.1,821,558.1,821,558.1z"/>
</g>
</svg>
